<?xml version="1.0" encoding="utf-8" ?>
<svg xmlns="http://www.w3.org/2000/svg" xmlns:xlink="http://www.w3.org/1999/xlink" width="2100" height="1500">
	<path fill="#FEFEFE" d="M1149.74 296.113L1150.11 296.315C1149.31 298.897 1145.74 301.002 1143.62 302.804C1119.18 323.568 1106.49 348.125 1103.92 380.218C1100.96 417.105 1102.07 441.517 1126.99 470.747C1116.71 466.688 1106.79 461.745 1096.61 457.426C1118.5 475.997 1158.73 495.469 1187.67 498.86C1191.96 499.362 1197.27 499.149 1200.66 496.141C1204.21 492.99 1205.16 488.433 1205.2 483.875C1205.46 454.263 1175.55 428.596 1156.25 409.384C1187.64 428.353 1217.5 455.724 1233.15 489.449C1238.98 502.021 1246.05 523.93 1237.59 536.719C1232.73 544.049 1228.12 546.696 1224.85 555.701C1224.08 548.39 1222.74 541.223 1221.39 534.003C1220.13 552.5 1220.03 574.06 1223.21 592.266C1224.47 599.488 1228.12 605.961 1228.54 613.383C1229.41 628.85 1225.87 645.733 1225.1 661.39C1221.32 643.32 1219.88 624.181 1212.51 607.044C1206.25 592.499 1177.27 556.575 1164.46 546.596C1161.37 544.186 1157.65 542.759 1154.03 541.337C1165.59 540.076 1176.26 540.08 1187.79 541.332L1187.23 541.104C1186.91 540.981 1186.59 540.863 1186.28 540.738C1176.44 536.814 1166.33 535.476 1155.76 535.754C1143.1 536.086 1130.06 538.312 1121.11 548.059C1102.29 568.556 1109.33 627.089 1110.62 653.446L1113.36 712.113C1108.92 701.193 1105.13 690.053 1100.42 679.236C1103.34 701.072 1114.38 743.044 1124.33 761.963C1127.85 768.648 1132.13 773.922 1137.35 779.343C1141.14 780.335 1145.19 781.603 1149.13 781.581C1164.38 781.498 1177.96 770.926 1188.23 760.722C1179.15 766.176 1170.27 770.811 1160.29 774.363C1164.47 768.785 1168.91 763.21 1172.59 757.292C1181.03 743.734 1187.92 721.017 1183.98 705.133C1177.83 680.312 1144.55 655.282 1123.62 642.563C1155.47 653.204 1183.61 667.584 1207.73 691.195C1214.7 698.029 1221.61 704.736 1229.18 710.912C1229.79 717.459 1231.3 723.281 1233.55 729.45C1234.9 730.406 1236.23 731.413 1237.41 732.576C1248.45 743.431 1251.27 764.313 1251.52 778.932C1251.92 802.017 1245.96 822.678 1229.86 839.503C1234.42 830.859 1238.86 822.673 1240.8 812.955C1243.72 798.277 1240.5 784.873 1232.24 772.545C1218.93 782.747 1208.65 799.322 1200.1 813.586C1200.61 799.639 1202.21 786.748 1205.35 773.128C1200.14 783.583 1196.4 794.412 1194.73 806.008C1190.15 837.655 1201.14 835.754 1216.9 857.037C1245.6 895.789 1254.02 943.583 1246.95 990.722C1244.89 968.339 1242.21 947.397 1234.92 925.996C1232 917.451 1228.59 909.094 1223.87 901.365C1213.11 883.711 1188.17 855.397 1169.62 846.493C1158.87 841.337 1136.88 836.101 1125.57 840.135C1124.42 842.651 1124.18 843.779 1124.8 846.539C1125.6 850.107 1128.4 853.676 1130.43 856.696C1140.72 872.055 1151.71 880.504 1167.44 889.788Q1163.68 888.91 1160.02 887.689C1126.82 876.667 1100.51 848.103 1085.12 817.39C1088.37 809.942 1087.77 803.685 1087.36 795.844C1095.38 803.859 1102.98 812.271 1111 820.278Q1103.73 807.699 1094.53 796.453C1087.45 787.779 1078.37 779.278 1073.57 769.053C1070.29 762.056 1069.55 753.691 1068.3 746.129C1062.31 709.943 1062.98 674.865 1062.02 638.326C1061.57 621.211 1059.96 603.614 1060.53 586.548C1060.64 583.122 1062.18 580.669 1063.18 577.534C1065.47 570.365 1067.55 561.355 1067.39 553.829L1067.37 553.006C1067.2 545.112 1064.34 537.237 1062.15 529.699C1065.61 517.088 1074.93 509.683 1081.03 498.526C1083.49 494.035 1083.17 489.506 1083.13 484.529C1087.24 496.401 1089.22 508.484 1092.78 520.444Q1092.85 516.581 1092.82 512.718C1092.65 492.521 1086.01 470.489 1071.38 456.029C1069.38 433.003 1069.49 407.4 1076.22 385.172C1087.58 347.727 1115.47 314.523 1149.74 296.113Z"/>
	<path fill="#FEFEFE" d="M966.463 295.918C981.947 300.144 1000.56 318.419 1010.89 330.523C1042.89 368.025 1050.25 407.714 1046.53 455.945C1038.47 463.626 1033.37 473.992 1029.67 484.392C1027.75 489.775 1023.02 509.517 1025.48 514.667C1029.91 506.126 1031.67 493.955 1034.74 484.596C1034.76 508.82 1044.61 501.826 1046.58 513.836C1050.1 535.381 1038.94 557.923 1026.72 574.85C1014.06 592.374 993.217 606.435 971.786 610.01C977.012 607.371 982.237 604.678 987.105 601.416C1002.31 591.232 1009.96 579.828 1013.46 561.801C1014.73 555.256 1016.25 546.558 1011.93 540.776C1009.16 537.069 1004.37 535.989 999.994 535.637C983.986 534.351 960.927 539.855 948.639 550.427C934.924 562.229 930.076 578.086 928.716 595.573C933.003 582.863 937.295 573.128 945.379 562.386C945.033 575.168 941.731 587.207 947.933 599.088C953.923 610.563 962.018 624.573 975.3 628.509C985.665 631.58 998.905 628.515 1008.17 623.451C1027.32 612.978 1038.96 587.942 1044.72 567.611C1046.62 560.943 1047.3 554.055 1049.3 547.387L1050.16 547.355C1051.48 556.947 1050.14 567.47 1048.3 576.911C1042.29 607.708 1028.86 634.717 1004.51 655.077C1000.54 658.394 994.25 664.297 988.963 665.177C977.358 667.11 968.396 660.185 957.11 668.012C939.561 680.181 934.011 707.887 930.452 727.689C935.516 717.395 939.51 706.311 944.146 695.783C943.314 714.715 943.862 733.897 943.823 752.859Q952.36 768.153 962.825 782.199C985.435 780.62 1005.06 772.892 1021.91 757.771C1014.26 761.368 1006.74 765.363 999.189 769.17C1029.03 731.326 1042.78 689.16 1045.32 641.363C1051.03 664.456 1053.81 687.789 1052.19 711.578C1051.02 728.865 1048.57 744.732 1049.37 762.17C1038.29 783.563 1018.26 798.478 1007.35 820.525C1014.61 811.909 1022.53 803.925 1030.39 795.865C1029.89 804.852 1029.81 810.703 1033.41 819.01C1028.73 827.226 1021.85 839.172 1014.06 844.571C998.438 867.377 977.409 882.653 950.555 889.824C967.04 879.961 984.717 867.127 992.237 848.562C993.497 845.452 993.678 843.305 992.284 840.268C991.392 839.834 990.637 839.469 989.646 839.304C976.095 837.053 954.861 841.829 943.216 849.218C932.475 856.032 922.935 866.369 914.362 875.715C890.117 902.148 881.023 923.312 874.631 958.158C873.218 965.865 872.677 973.731 870.919 981.356L870.151 981.808L870.925 981.052L869.481 979.642L869.532 979.916C863.22 942.221 875.621 890.755 898.408 860.474C906.528 849.684 918.674 841.333 922.669 827.907C927.714 810.948 920.563 788.711 912.325 773.89C915.873 787.172 917.202 799.311 917.66 813.027C908.539 798.797 898.872 782.868 885.282 772.529C882.459 777.29 879.899 782.116 878.252 787.426C872.28 806.68 879.158 822.753 888.076 839.603C883.375 834.758 879.471 830.106 876.231 824.14C869.814 812.324 866.945 799.025 866.374 785.663C864.143 733.485 895.187 726.654 907.95 682.414Q899.493 696.561 890.812 710.571C892.516 677.357 893.109 644.023 894.309 610.781C895.233 585.18 897.03 559.813 896.804 534.166C894.828 541.514 893.929 548.755 893.238 556.304C892.749 555.005 892.195 553.727 891.716 552.426C889.241 545.701 883.701 542.044 879.952 536.159C875.034 528.438 876.174 516.896 878.096 508.338C887.605 465.999 926.427 431.481 961.54 409.291C955.51 415.848 948.952 421.864 942.806 428.305C928.368 443.437 911.415 463.558 912.6 485.839C912.806 489.721 914.075 493.505 917.202 496.001C920.576 498.694 925.398 499.032 929.545 498.706C952.142 496.93 1005.7 474.195 1019.73 457.402C1010.23 462.535 1000.47 466.781 990.539 471.003C1014.05 443.804 1015.84 423.121 1014.42 388.46C1012.53 342.805 998.412 325.393 966.463 295.918Z"/>
	<path fill="#FEFEFE" d="M933.547 396.545C938.267 395.493 952.048 394.549 956.27 396.865C950.621 399.161 944.343 399.434 938.412 400.724C874.858 414.553 819.559 466.617 785.266 519.771C785.82 510.822 787.24 501.907 787.971 492.961C782.573 507.727 780.967 521.248 782.078 536.891C783.71 559.873 791.344 583.563 798.054 605.55C807.611 636.87 818.444 667.984 826.763 699.654C827.526 680.062 826.759 660.225 826.303 640.627C825.983 626.871 826.519 611.892 824.016 598.337C828.588 590.766 830.561 582.414 833.651 574.21C838.104 562.386 843.341 550.904 847.368 538.908C852.241 524.389 855.861 509.462 860.734 494.943C864.127 484.831 869.597 475.513 872.741 465.34C874.704 458.988 873.665 449.356 875.489 445.032C883.054 454.15 874.474 485.033 873.462 496.656C872.546 507.185 872.504 520.431 874.333 530.796L874.569 532.065C860 557.349 855.24 580.389 856.331 609.265C858.561 595.265 861.927 581.486 864.839 567.617C866.792 575.89 868.626 583.786 873.645 590.789C872.79 615.858 868.783 640.708 867.967 665.7C867.232 688.225 869.824 710.707 868.505 733.333C867.062 758.098 863.038 782.745 862.159 807.528C859.094 798.574 856.313 789.397 852.164 780.874C854.04 793.936 859.798 821.512 867.784 832.093C871.705 837.289 877.248 841.337 880.334 847.137C880.306 851.422 876.871 852.813 876 856.445C875.324 859.263 876.841 862.381 876.435 865.025C876.351 865.571 848.084 909.524 843.955 918.813C836.574 935.414 832.367 951.801 826.698 968.878C824.1 976.705 820.69 984.323 817.93 992.123C811.724 962.432 813.521 941.171 813.089 911.356C829.522 886.511 841.921 854.433 836.68 824.285C835.252 833.886 833.466 843.398 831.634 852.929C829.967 844.079 827.485 835.479 822.732 827.759C820.662 824.397 816.586 819.587 815.516 815.918C814.626 812.865 817.214 808.68 816.743 805.224C815.804 798.324 812.957 790.934 811.018 784.214C802.682 747.525 789.769 712.02 782.464 675.208C779.472 696.002 779.556 717.248 778.138 738.183C777.441 748.477 774.885 758.499 773.606 768.715C771.068 788.994 772.513 814.155 779.988 833.056C761.431 843.011 749.128 853.05 740.218 872.672C748.014 862.088 755.735 854.428 766.572 847.006C764.609 854.012 763.904 858.423 765.928 865.538C758.233 877.342 748.896 888.066 740.955 899.712C734.088 909.782 728.338 920.705 721.991 931.116C694.382 976.404 639.587 1028.44 586.813 1041.21Q589.512 1039.72 592.186 1038.19C629.771 1016.72 657.421 986.418 681.236 950.728C687.084 941.965 693.298 933.012 698.123 923.638C702.88 914.397 705.793 904.319 710.195 894.922C716.631 881.183 723.934 868.36 728.691 853.864C730.919 847.072 733.524 839.924 734.914 832.916C736.702 823.905 737.501 814.824 739.971 805.94L740.38 804.498C735.418 808.94 729.432 830.895 726.786 838.015C727.743 804.07 729.091 769.606 732.671 735.848C737.435 690.929 746.809 645.953 742.245 600.65C748.999 616.352 753.609 634.003 760.204 648.65C760.366 648.22 760.581 647.807 760.69 647.361C762.71 639.099 751.15 598.838 746.685 590.357C743.272 583.873 738.322 578.484 733.302 573.226C733.442 540.359 753.604 506.191 774.452 481.709C812.062 437.543 875.148 401.163 933.547 396.545Z"/>
	<path fill="#FEFEFE" d="M1161.22 396.519C1163.84 396.085 1166.58 395.924 1169.23 395.852C1225.49 394.329 1287.54 427.497 1327.43 465.179C1355.96 492.123 1383.42 532.768 1384.52 573.088C1362.84 595.052 1358.48 627.185 1355.62 656.71C1358.95 648.748 1361.02 640.095 1363.72 631.89C1367.13 621.543 1371.21 611.548 1375.48 601.533C1371.47 648.696 1380.95 694.617 1385.64 741.359C1388.83 773.158 1389.5 805.299 1391.05 837.225C1385.76 824.071 1381.56 810.51 1376.58 797.235C1378.85 820.609 1384.79 846.392 1394.2 867.978C1398.36 877.511 1403.6 886.516 1407.94 895.955C1412.14 905.083 1415.05 914.812 1419.65 923.757C1433.22 950.139 1458.59 984.679 1480.59 1005.02C1489.02 1012.8 1498.24 1020.17 1507.7 1026.66C1513.03 1030.32 1519.69 1033.61 1524.49 1037.84C1525.56 1038.78 1526.32 1039.81 1527.04 1041.02C1522.85 1038.23 1517.08 1036.43 1512.45 1034.41C1502.8 1030.18 1493.45 1025.8 1484.59 1020.06C1449.6 997.389 1421.31 970.473 1398.59 935.377C1391.28 924.076 1385.29 911.906 1378.07 900.576C1371.35 890.045 1360.94 881.22 1355.25 870.148C1355.03 869.732 1354.83 869.308 1354.62 868.893C1351.57 863.024 1353.89 855.308 1352.04 848.62L1351.68 847.358C1362.02 854.637 1369.16 862.569 1377.5 871.902C1368.66 852.279 1356.18 843.271 1338.14 832.841C1348.37 806.058 1346.29 775.553 1340.81 748.05L1325.59 740.879Q1310.13 734.131 1295.37 725.949C1296.22 748.503 1295.17 797.294 1303.9 815.799C1293.43 827.057 1289.92 837.364 1286.09 851.972Q1283.31 836.76 1280.83 821.496C1277.75 855.722 1286.75 883.082 1304.81 911.847C1304.7 928.941 1305.84 949.027 1304.18 965.662C1303.34 974.107 1301.72 995.085 1295.37 1000.29L1294.28 999.488C1292.62 980.715 1290.14 959.74 1283.75 941.999C1279.31 929.669 1273.68 917.284 1267.38 905.787C1259.37 891.182 1236.2 863.062 1238.15 846.634C1238.32 845.227 1249.89 832.794 1252.16 828.065C1259.92 811.94 1263.72 795.506 1266.54 777.932C1262.03 786.9 1259.2 797.055 1255.97 806.563C1254.01 779.92 1250.07 753.208 1249.21 726.517C1248.52 704.889 1250.8 683.214 1249.76 661.654C1248.62 638.15 1245.19 614.793 1244.15 591.232C1249.25 583.921 1250.91 576.259 1252.81 567.714Q1257.45 588.817 1261.84 609.972C1263.64 579.368 1257.82 559.051 1243.5 531.993C1245.93 517.202 1245.35 499.483 1243.03 484.661C1241.97 477.912 1239.81 471.244 1239.41 464.412C1239.1 459.126 1239.98 453.464 1240.47 448.179L1242.64 447.331C1242.53 446.967 1242.26 445.867 1242.1 445.543C1244.19 451.593 1242.62 458.515 1244.43 464.695C1247.38 474.806 1253.01 485.157 1257.05 494.962C1260.73 503.883 1263.38 513.313 1267.9 521.856C1270.87 527.458 1274.56 532.258 1278.58 537.134C1273.22 534.546 1267.68 532.602 1262.08 530.612C1281.93 544.482 1309.94 554.63 1334.16 553.729C1336.87 538.164 1338.94 511.358 1330.5 497.372C1331.21 504.455 1331.54 511.588 1331.98 518.692C1300.13 469.506 1252.29 424.248 1195.98 405.403C1189.42 403.205 1163.33 398.2 1161.22 396.519ZM1311.69 585.671C1313.58 592.317 1315.63 598.956 1317.04 605.726L1306.71 601.891C1303.16 604.085 1299.39 606.152 1296.1 608.743C1289.88 628.164 1295.82 656.631 1296.25 677.465C1303.64 681.321 1310.99 685.308 1318.45 689.007C1324.07 691.966 1329.85 694.774 1335.31 698.003C1334.05 664.937 1331.89 628.24 1318.8 597.534C1317.39 594.234 1315.74 589.257 1313.13 586.741C1312.42 586.048 1312.42 586.095 1311.69 585.671Z"/>
	<path fill="#FEFEFE" d="M1417.59 365.992C1438.12 366.432 1482.13 395.523 1498.03 409.189C1539.33 444.682 1570.16 498.73 1574.07 553.6C1574.63 561.353 1576.13 576.995 1570.45 582.957C1568.06 585.476 1565.56 584.69 1562.42 584.72C1551.77 584.821 1549.13 600.312 1542.42 606.93C1542.51 606.738 1542.6 606.549 1542.69 606.355C1542.82 606.031 1542.94 605.699 1543.08 605.377C1543.18 605.15 1543.31 604.934 1543.41 604.707C1545.8 599.356 1544.59 583.66 1542.34 578.124C1540.76 581.597 1540.81 586.01 1540.46 589.779C1538.14 614.796 1542.93 621.906 1544.91 644.568C1546.52 663.052 1550.23 740.53 1542.96 754.677C1543.23 752.825 1543.53 750.845 1543.12 748.994C1541.33 741.035 1532.24 715.222 1526.4 711.071C1529.97 718.207 1531.1 726.662 1532.85 734.402C1537.85 756.476 1545.77 779.905 1561.37 796.937C1563.94 799.75 1566.15 801.264 1570 801.413C1572.95 800.484 1574.9 799.234 1576.91 796.838C1585.55 786.555 1587.92 760.055 1586.2 747.103C1584.39 733.455 1578.77 719.626 1567.57 711.166C1569.99 711.991 1572.27 712.84 1574.3 714.421C1589.81 726.494 1596.84 750.044 1599.19 768.657C1601.99 790.73 1598.47 828.099 1583.09 845.577C1581.38 847.517 1580.14 847.732 1577.68 848.001L1576.73 847.582C1574.61 846.654 1571.6 845.016 1569.26 845.987C1556.8 851.158 1545.71 865.923 1540.81 878.12C1536.9 887.864 1539.58 898.948 1541.93 908.843C1545.09 922.141 1549.7 935.354 1557.11 946.911C1570.01 967.025 1591.86 985.02 1610.01 1000.31C1615.24 1004.72 1654.09 1033.26 1654.73 1035.1C1654.85 1035.45 1654.92 1035.81 1655.02 1036.16C1640.19 1028.36 1625.13 1021.24 1610.67 1012.71C1569.55 988.437 1523.88 953.09 1502.47 909.16C1498.52 901.055 1488.89 882.627 1492.33 874.1C1494.29 869.241 1498.21 869.718 1502.16 867.717C1502.37 867.609 1502.57 867.477 1502.78 867.357Q1504.13 863.745 1505.33 860.08C1507.26 854.049 1507.96 848.213 1504.96 842.388C1506.18 843.284 1507.3 844.228 1508.33 845.336C1513.34 850.735 1522.68 865.646 1522.32 872.774C1526.19 859.11 1491.54 797.6 1482.56 783.697C1475.32 772.487 1466.44 762.225 1459.65 750.755C1454.42 741.941 1450.33 732.501 1446.31 723.097C1446.97 736.609 1446.18 750.398 1446.04 763.939C1445.74 793.272 1445.34 822.821 1446.7 852.128C1447.22 863.459 1447.21 875.695 1449.35 886.804C1450.88 894.75 1453.6 902.169 1456.41 909.727C1463.23 925.852 1471.47 939.807 1483.72 952.492C1489.79 958.771 1511.73 974.394 1513.96 979.352C1509.93 976.017 1503.49 973.713 1498.8 971.22C1490.11 966.593 1482.1 961.451 1474.5 955.168C1441.65 928.039 1426.02 895.821 1408.82 857.911C1406.78 853.431 1400.84 846.929 1400.64 842.394C1400.52 839.741 1400.33 837.97 1402.07 835.96C1409.25 839.207 1416.95 857.403 1421.96 864.282C1415.65 846.213 1407 828.253 1397.44 811.676L1400.09 804.919C1401.23 802.056 1401.44 799.597 1401.46 796.548C1401.6 774.273 1399.25 751.446 1398.06 729.164Q1394.67 668.442 1392.18 607.675C1391.74 598.085 1388.38 577.541 1391.16 569.4C1394.14 560.707 1403.84 555.522 1409.02 548.103C1419.41 533.216 1418.74 512.955 1415.75 495.891C1414.7 510.314 1412.5 522.612 1408.06 536.393C1406.21 511.637 1397.22 487.036 1384.28 465.797C1365.71 435.316 1339.56 422.874 1306.04 414.885C1312.79 414.718 1319.49 414.84 1326.18 415.794C1364.76 421.289 1397.99 448.037 1420.74 478.538C1438.05 501.758 1459.04 549.991 1454.83 578.637C1452.3 582.192 1448.91 581.721 1445.6 584.224C1440.24 588.268 1439.88 595.829 1438.84 601.91Q1432.96 589.982 1426.76 578.212C1433.94 610.353 1453 637.508 1468.25 666.135C1478.52 685.406 1487.73 705.367 1497.35 724.971C1500.18 707.895 1499.46 691.119 1499.54 673.882C1499.59 663.925 1500.3 653.524 1499.16 643.624C1498.03 633.883 1495.4 624.409 1492.78 614.986L1496.44 603.881C1501.89 610.94 1511.11 620.797 1513.56 629.279C1513.96 617.983 1498.07 596.121 1491.94 586.19C1489.82 582.767 1489.53 581.149 1490.43 577.419C1494.13 572.884 1500.72 571.094 1505.92 568.742C1513.1 565.495 1523.31 557.872 1525.82 550.06C1525.95 549.65 1526.05 549.233 1526.17 548.819C1526.34 548.579 1526.54 548.358 1526.68 548.1C1532.29 537.714 1525.9 494.644 1522.78 482.07C1508.93 426.274 1463.82 393.883 1417.59 365.992Z"/>
	<path fill="#FEFEFE" d="M699.942 365.103L700.936 365.346C699.449 368.169 677.329 379.555 672.052 383.229Q666.031 387.386 660.27 391.896Q654.508 396.405 649.027 401.251Q643.546 406.098 638.364 411.263Q633.182 416.429 628.319 421.895C594.77 459.549 587.667 499.757 590.41 548.342C600.083 561.565 608.75 569.399 624.638 573.929C634.86 570.486 644.882 567.616 652.808 559.87C665.322 547.639 670.147 526.762 677.528 511.141Q679.585 506.75 681.863 502.47Q684.14 498.189 686.632 494.03Q689.123 489.87 691.823 485.842Q694.522 481.814 697.422 477.929Q700.322 474.043 703.416 470.309Q706.509 466.576 709.788 463.004Q713.067 459.432 716.523 456.031Q719.979 452.63 723.603 449.409C749.923 425.901 779.973 413.149 815.65 415.188C792.781 418.767 772.406 425.236 754.699 440.928C728.807 463.873 711.965 503.504 710.073 537.702C708.112 531.88 705.373 525.564 704.276 519.539C703.293 514.137 703.619 508.683 701.889 503.405C701.766 503.609 701.617 503.8 701.518 504.017C697.155 513.58 703.475 542.59 710.013 550.651C714.296 555.932 724.657 559.816 726.722 566.604C729.645 576.212 726.304 599.559 725.873 610.59Q723.368 674.553 719.549 738.451C718.558 756.592 715.199 783.276 716.963 800.661C717.342 804.39 719.262 808.341 720.695 811.791C714.184 823.284 701.421 844.967 699.299 857.536C704.215 854.962 711.008 838.145 715.799 832.995C715.956 833.373 716.126 833.745 716.272 834.128C717.226 836.639 717.491 842.34 716.811 844.96C715.77 848.97 711.08 853.689 709.084 857.544C705.544 864.38 703.151 872.249 699.934 879.335C679.32 924.735 646.071 962.766 598.678 980.586C612.103 971.598 624.906 962.281 635.9 950.347Q638.671 947.316 641.253 944.122Q643.834 940.927 646.215 937.581Q648.596 934.235 650.768 930.75Q652.941 927.265 654.896 923.653Q656.852 920.042 658.583 916.318Q660.314 912.593 661.814 908.77Q663.315 904.947 664.579 901.04Q665.843 897.132 666.866 893.155C672.718 870.266 671.385 837.737 671.521 813.868C671.673 787.014 672.002 760.019 670.876 733.185C658.457 737.757 646.135 742.374 633.997 747.665C628.688 750.39 623.849 753.439 618.944 756.834C620.294 776.104 623.994 798.868 616.765 817.167C612.848 827.083 607.223 836.435 603.045 846.305C600.74 851.751 596.221 859.75 595.607 865.526C595.576 865.816 595.598 866.109 595.594 866.401L595.572 866.388C596.467 865.386 596.953 865.021 597.236 863.676L596.731 864.086L597.203 865.46C597.378 864.448 597.55 863.838 598.108 862.955C602.466 856.062 606.389 848.805 610.47 841.738C611.031 853.945 611.058 862.142 621.217 870.44C622.943 871.85 624.998 873.382 625.878 875.501C628.845 882.644 619.733 900.997 616.264 908.046C590.125 961.163 512.115 1019.2 457.145 1037.61Q459.182 1036.28 461.203 1034.93C491.686 1014.5 548.818 971.412 565.154 938.922C573.421 922.481 576.43 904.695 579.949 886.852C574.722 872.593 564.414 849.615 547.18 847.133C542.962 846.526 537.735 847.441 534.183 844.916C519.046 823.289 514.979 793.544 518.547 767.853C521.984 743.104 531.408 722.533 551.616 707.383C544.255 715.882 538.547 724.143 534.882 734.898C529.459 750.812 530.095 777.173 538.046 792.382C539.744 795.63 542.444 799.054 546.205 799.923C548.891 800.543 551.603 799.558 553.823 798.067C575.027 783.817 584.441 736.184 589.532 711.664C582.008 725.322 577.194 742.771 571.736 757.466C572.781 727.958 570.159 698.316 571.145 668.72C572.323 633.358 581.451 610.799 575.291 574.042C573.976 585.15 573.974 596.426 572.743 607.589C571.088 603.148 569.57 598.377 567.209 594.261C562.247 585.611 557.403 586.695 549.425 583.744C546.89 582.807 545.581 581.117 544.777 578.577C536.505 552.434 553.782 501.102 566.188 477.057C594.463 422.255 641.484 383.831 699.942 365.103ZM659.928 619.217C645.383 622.561 632.708 628.975 619.883 636.346C615.726 653.697 619.097 684.423 618.37 703.732L629.67 698.952Q651.682 690.19 674.134 682.628Q673.295 654.2 673.625 625.762C671.675 622.905 669.898 619.55 666.163 618.992C664.135 618.688 661.953 618.981 659.928 619.217Z"/>
	<path fill="#FEFEFE" d="M1588.22 365.5C1595.32 364.714 1602.89 365.054 1610.02 365.498C1669.58 369.21 1729.26 401.431 1768.4 445.931C1789.07 469.426 1816.51 513.752 1814.41 545.838L1814.46 547.001C1809.06 555.96 1810.38 567.372 1805.03 575.819C1805.27 574.724 1805.46 573.526 1805.32 572.405C1804.33 564.658 1793.18 541.261 1787.7 536.878C1793.23 545.598 1794.85 557.12 1797.76 566.978C1803.73 587.184 1811.99 605.835 1831.23 616.124C1865.89 634.654 1907.92 635.827 1944.99 624.602C1952.49 622.332 1967.35 618 1971.16 610.882C1958.42 617.271 1943.85 618.929 1929.88 620.66C1930.89 620.265 1931.87 619.844 1932.87 619.418C1964.09 606.072 2005.94 553.989 2019.85 523.042C2028.31 504.203 2042.47 433.797 2035.86 416.518C2036.4 417.363 2036.91 418.222 2037.45 419.072C2040.66 424.16 2040.96 431.975 2041.52 437.878C2048 506.854 2032.23 582.688 1987.07 636.816C1971.73 655.205 1945.58 680.606 1920.98 682.461C1913.81 683.001 1906.28 681.763 1899.07 681.551C1892.04 681.344 1884.85 682.152 1877.85 682.793C1883.11 680.912 1906.04 669.834 1909.45 666.382C1910.02 665.811 1910.58 664.267 1910.98 663.509C1902.59 668 1892.63 670.069 1883.88 673.962Q1882.66 674.512 1881.47 675.12Q1880.27 675.729 1879.11 676.395Q1877.95 677.062 1876.82 677.784Q1875.7 678.506 1874.61 679.283Q1873.52 680.06 1872.47 680.889Q1871.41 681.718 1870.4 682.598Q1869.4 683.477 1868.43 684.405Q1867.46 685.333 1866.55 686.307Q1865.63 687.281 1864.76 688.299Q1863.89 689.317 1863.07 690.377Q1862.25 691.436 1861.48 692.534Q1860.72 693.632 1860.01 694.766Q1859.3 695.901 1858.64 697.068Q1857.99 698.236 1857.39 699.434Q1856.79 700.633 1856.25 701.859Q1855.72 703.085 1855.24 704.336C1852.62 711.292 1852.66 718.857 1855.99 725.581C1861.67 737.078 1876 745.032 1887.73 748.776C1908.15 755.297 1937.4 752.68 1956.4 742.703C1962.59 739.452 1969.98 734.252 1972.19 727.344C1972.24 727.973 1972.3 728.604 1972.32 729.236C1972.43 733.786 1968.54 738.048 1965.51 741.187C1948.05 759.259 1918.59 765.056 1894.41 765.48C1861.78 766.052 1830.47 757.871 1804.11 738.087C1799.99 734.998 1795.31 731.858 1791.73 728.159C1785.47 721.702 1791.06 712.032 1790.74 704.152C1790.46 697.24 1785.71 689.268 1780.55 684.781C1780.31 684.571 1780.06 684.37 1779.81 684.165C1781.04 684.622 1782.19 685.091 1783.37 685.659C1793.22 690.398 1813.68 704.265 1817.15 714.378C1817.15 714.089 1817.15 713.8 1817.14 713.512C1816.78 704.886 1802.16 691.451 1795.85 685.759C1769.66 662.127 1735.67 663.986 1702.67 665.877C1687.92 666.722 1674.62 669.644 1664 680.559C1661.95 682.661 1660.68 685.306 1658.7 687.451C1658.43 687.746 1658.15 688.035 1657.87 688.326C1661.83 702.646 1661.76 724.367 1663.08 739.634C1665.09 762.98 1669.07 787.223 1668.52 810.647C1668.46 813.371 1667.85 815.615 1666.58 818.02C1666.71 816.667 1666.88 815.049 1666.61 813.714C1665.65 808.916 1649.76 776.431 1646.56 772.128C1645.67 770.938 1644.46 769.997 1643.25 769.173C1650.45 781.981 1654.98 806.505 1662.33 822.187C1668.32 834.987 1674.29 847.074 1683.71 857.732C1687.5 862.024 1693.59 866.539 1696.54 871.142C1696.71 871.409 1696.87 871.682 1697.04 871.951C1722.43 875.712 1734.19 873.836 1755.88 858.592C1760.83 855.119 1768.39 850.262 1769.56 843.972C1763.86 851.661 1750.93 856.599 1742.08 859.53C1746.89 854.261 1746.47 847.005 1750.16 841.273C1753.08 836.75 1759.47 833.324 1760.9 828.094C1762.73 825.466 1763.12 823.052 1763.59 819.946C1767.04 796.918 1754.9 766.843 1741.29 748.724C1722.43 723.634 1696.76 714.766 1666.69 710.466Q1671.61 709.961 1676.57 709.882Q1681.52 709.802 1686.45 710.15Q1691.39 710.498 1696.28 711.27Q1701.17 712.042 1705.98 713.233C1744.35 722.369 1781.69 749.983 1802.35 783.622C1807.87 792.611 1815.24 805.071 1812.27 816.044C1810.92 821.044 1808.05 822.838 1803.88 825.302C1803.05 834.6 1801.29 844.385 1801.68 853.709C1802.56 875.005 1810.82 899.894 1826.92 914.567C1844.67 930.749 1871.38 935.818 1894.74 934.732C1889.74 931.321 1878.76 930.478 1872.68 928.579C1863.13 925.595 1854.27 921.282 1844.89 917.888C1863.18 917.51 1882.03 913.866 1899.66 909.139C1915.18 904.977 1950.41 892.578 1958.35 878.763C1958.76 878.544 1959.18 878.338 1959.58 878.107C1974.64 869.474 1997.91 833.214 2005.14 817.353C2008.45 810.085 2010.53 802.366 2012.24 794.588C2016.8 773.922 2023.23 725.695 2011.63 707.579C2013.8 709.712 2016 711.829 2017.19 714.688C2035.34 758.158 2027.36 821.345 2009.55 863.726C1995.17 897.96 1971.34 931.77 1938.78 950.734C1934.15 953.434 1928.37 957.088 1923.17 958.455C1919.72 959.362 1914.39 956.81 1910.77 956.457C1903.9 955.786 1895.8 958.495 1889.55 961.088C1862.65 972.243 1841.41 991.348 1834.96 1020.26C1833.07 1028.7 1832.92 1038.62 1829.47 1046.49C1829.34 1046.78 1829.2 1047.06 1829.06 1047.35C1830.42 1045.97 1831.8 1044.45 1832.73 1042.73C1835.68 1037.24 1839.48 1023.74 1837.83 1017.68C1841.78 1023.04 1843.63 1036.99 1846.39 1044.24C1847.97 1048.4 1851.37 1051.95 1852.05 1056.31C1852.69 1057.49 1853.13 1058.28 1853.36 1059.61C1854.42 1065.73 1853.42 1073.2 1853.66 1079.5C1854.73 1106.75 1855.66 1133.37 1854.65 1160.67C1854.34 1168.86 1854.54 1177.91 1852.95 1185.94C1852.42 1188.67 1850.73 1190.85 1849.08 1193.01C1849.64 1191.75 1850.23 1190.47 1850.62 1189.14C1852.68 1182.12 1850.51 1171.54 1849.76 1164.33C1844.05 1109.73 1824.35 1070.54 1799.21 1022.65C1782.16 990.162 1732.77 931.051 1697.04 919.947C1708.45 926.296 1720.21 937.434 1727.63 948.165C1722.27 945.053 1717.36 947.903 1712.74 945.777C1709.15 944.118 1706.45 940.141 1702.89 938.099C1686.5 928.671 1662.45 917.983 1643.47 917.793C1619.66 917.554 1621.79 932.688 1609.24 944.726C1609.07 944.884 1608.9 945.034 1608.73 945.188C1614.45 941.521 1621.78 933.655 1625.23 927.794C1625.53 935.496 1622.57 942.716 1623.31 950.678C1626.44 984.358 1651.64 1012.07 1678.99 1029.94C1684.11 1033.28 1693.09 1036.79 1696.07 1042.07C1685.53 1037.03 1674.6 1033.29 1664.31 1027.61C1630.5 1008.96 1601.78 975.862 1591.24 938.452C1588.46 928.57 1583.79 902.922 1587.41 892.832C1589.52 886.939 1594.49 880.962 1597.53 875.383C1601.89 867.38 1605.86 857.382 1606.98 848.291C1610.41 820.307 1604.66 792.053 1602.43 764.2C1600.23 736.656 1600.49 709.326 1594.52 682.093C1592.46 672.674 1585.48 666.104 1583.19 657.225C1581.88 652.163 1582.13 645.334 1584.77 640.717L1586.48 640.302C1587.39 641.015 1588.1 641.563 1588.8 642.494C1595.08 650.798 1612.29 681.898 1610.79 692.26C1610.75 692.51 1610.71 692.757 1610.66 693.006C1615.28 680.813 1606.14 658.388 1599.84 647.54C1595.52 640.105 1583.39 627.949 1584.09 619.09C1584.65 611.923 1591.73 611.525 1595.81 607.502C1596.07 607.245 1596.32 606.978 1596.58 606.717C1597.17 606.096 1597.41 605.91 1597.87 605.247C1605.38 594.447 1601.78 566.978 1599.6 554.186C1592.11 510.158 1566.78 463.196 1529.93 437.097C1556.52 446.872 1580.76 473.845 1595.68 497.381C1601.86 507.129 1606.78 517.663 1613.11 527.31C1621.53 540.129 1632.23 551.768 1639.49 565.295C1640.51 567.206 1641.43 569.247 1641.76 571.408C1642.01 573.035 1641.6 598.305 1641.43 598.84C1626.93 590.442 1622.08 579.245 1611.01 572.466C1619.59 580.37 1622.55 592.258 1632.1 599.681C1653.86 616.607 1691.93 612.276 1717.93 609.065C1715.45 615.868 1704.07 621.432 1697.97 624.59C1715.56 620.096 1732.55 606.632 1744.86 593.44C1764.41 572.495 1773.91 543.247 1772.81 514.817C1772.27 500.919 1768.55 476.827 1757.95 467.086C1758.89 468.351 1759.79 469.656 1760.48 471.072C1764.18 478.606 1766.31 495.289 1763.47 503.072C1763.51 502.707 1763.58 502.344 1763.61 501.977C1764.23 495.106 1756.42 483.102 1753.08 476.901C1746.95 465.513 1740.91 453.353 1732.88 443.189C1711.36 415.969 1670.33 392.093 1638.31 379.508Q1630.23 376.354 1621.92 373.882Q1613.6 371.41 1605.11 369.636C1600.92 368.795 1590.66 368.419 1588.22 365.5Z"/>
	<path fill="#FEFEFE" d="M507.299 365.554C517.632 364.425 527.054 364.986 537.288 366.388Q533.156 366.735 529.041 367.245Q524.925 367.756 520.834 368.431Q516.742 369.105 512.681 369.943Q508.62 370.78 504.595 371.778Q500.57 372.776 496.588 373.934Q492.606 375.092 488.674 376.407Q484.741 377.723 480.864 379.194Q476.987 380.665 473.172 382.29C444.291 394.289 403.735 418.998 384.559 443.88C370.712 461.847 360.294 485.041 351.629 505.932C352.79 493.87 354.381 481.957 356.245 469.984C351.053 481.325 347.435 495.025 345.967 507.348C342.308 538.062 351.765 566.808 370.665 590.822C367.45 624.182 372.514 653.993 382.255 685.947C382.078 676.805 380.728 667.606 380.131 658.463C379.115 642.892 378.636 627.262 376.587 611.781C391.089 644.161 403.478 677.993 416.07 711.164C426.316 692.99 433.059 675.224 438.103 654.96C439.912 647.692 439.774 634.717 443.309 628.534C445.599 624.531 458.848 622.572 463.217 618.709C477.938 605.693 489.901 586.749 498.163 568.99C489.299 579.873 480.526 590.812 470.957 601.093C481.429 583.038 472.009 581.348 476.612 569.09C481.953 554.869 494.838 541.407 503.438 528.825C509.941 519.309 514.897 508.837 520.957 499.046C537.377 472.52 560.645 448.527 589.372 435.615C565.677 454.07 547.893 476.554 534.797 503.566C520.576 532.899 509.18 574.903 520.231 606.59C524.124 608.574 529.446 610.721 532.043 614.385C534.549 617.92 533.944 623.645 532.498 627.485C530.597 632.536 524.85 636.795 521.691 641.273C512.329 654.543 507.269 674.448 505.24 690.492C512.447 671.419 520.856 654.896 531.891 637.752C531.986 637.949 532.084 638.145 532.177 638.342C539.497 653.876 532.297 660.13 526.37 673.754C524.13 678.903 523.033 684.976 522.15 690.493C518.065 716.01 517.578 740.796 515.43 766.377C513.949 784.023 510.629 801.85 510.3 819.54C509.957 838.025 510.486 857.648 519.713 874.207C523.39 880.807 528.876 887.313 530.764 894.691C536.239 916.096 524.468 950.309 513.921 968.641C492.832 1005.3 456.278 1032.44 415.581 1043.37C438.956 1030.62 460.423 1015.67 477.017 994.509C492.96 974.183 495.496 952.8 492.63 928.003Q499.641 935.732 506.777 943.345C502.793 935.518 496.403 929.814 492.414 922.305C488.647 915.216 486.027 907.319 482.609 900.02C475.862 885.617 467.147 872.985 457.33 860.528C456.649 826.311 462.638 804.101 472.394 771.606C468.297 777.229 465.878 784.389 463.153 790.768C466.869 761.903 467.661 733.307 469.412 704.326C460.933 723.672 451.7 743.199 442.117 762.033C436.391 773.285 429.337 783.771 424.577 795.517C418.705 810.008 414.779 825.456 411.484 840.711C418.393 828.155 423.536 814.025 429.638 800.988C422.217 852.165 423.849 870.832 450.084 916.816C431.85 897.955 412.401 866.217 403.649 841.718C398.888 828.392 395.905 813.762 392.884 799.928C387.911 777.156 387.612 766.089 376.234 744.814Q377.297 771.251 375.991 797.678C375.009 815.212 372.206 834.354 374.276 851.809C377.372 877.919 389.938 901.501 393.432 927.266C397.17 954.823 388.796 980.418 377.799 1005.2C374.399 1012.86 370.985 1021.11 365.844 1027.78C373.972 1001.47 378.483 978.092 374.455 950.548C358.574 961.622 342.875 973.957 333.872 991.514C330.204 998.668 327.574 1006.3 323.961 1013.51C318.301 1023.09 313.674 1033.38 308.468 1043.23C280.624 1095.88 268.962 1133.32 266.505 1193.18C258.629 1147.49 264.388 1102.18 264.02 1056.28C273.365 1043.38 275.948 1031.74 276.827 1016.07C280.374 1025.66 283.145 1035.27 285.733 1045.16C286.196 1036.02 284.502 1026.24 282.102 1017.45C273.727 986.779 243.868 962.192 212.705 956.604C210.358 956.183 207.88 956.81 205.568 957.209C194.084 959.188 190.109 957.436 180.236 951.656C138.116 926.998 110.17 880.201 97.9431 833.883C88.7268 798.971 85.4999 738.307 104.257 706.062Q103.155 711.813 102.365 717.615Q101.575 723.417 101.1 729.253Q100.624 735.089 100.464 740.942Q100.305 746.795 100.461 752.649Q100.617 758.502 101.089 764.338Q101.562 770.175 102.348 775.977Q103.134 781.779 104.233 787.531Q105.332 793.282 106.739 798.966C110.515 814.75 117.698 827.491 126.572 840.874C150.214 876.532 180.412 900.639 222.925 910.374C230.579 912.126 265.265 916.401 268.293 918.263L267.727 919.775C255.933 928.485 235.526 931.379 221.635 935.059C232.5 934.765 243.211 934.162 253.872 931.856C273.122 927.691 290.579 918.478 301.422 901.563C313.361 882.938 318.068 857.363 313.446 835.734C333.788 803.612 342.192 769.032 342.135 731.172C337.05 753.529 331.055 774.005 322.305 795.211C323.156 776.839 323.196 740.393 319.515 723.002C318.635 718.841 316.68 714.868 314.911 711.023C308.127 723.006 305.752 739.218 299.638 749.073C298.378 751.104 297.004 751.865 294.936 752.953C287.849 756.681 279.164 758.346 271.378 760.075C242.838 766.41 213.18 768.669 184.821 759.898C164.718 753.68 150.419 742.737 140.586 724.116C146.454 731.093 152.295 736.8 160.251 741.418C178.581 752.057 206.711 755.063 227.071 749.617C242.753 745.423 255.885 735.982 263.977 721.913C264.534 711.827 263.304 704.103 257.954 695.399C246.422 676.639 224.35 669.026 203.968 664.111C216.266 669.957 227.893 676.468 239.529 683.537C233.508 682.573 227.499 681.658 221.385 681.678C208.315 681.72 196.568 684.608 183.925 679.632C146.56 664.927 114.356 620.449 98.6654 584.959C79.6267 541.896 73.4863 497.131 75.5185 450.41C75.9652 440.14 75.7248 427.477 79.4799 417.807L80.2904 418.285C81.2201 425.657 80.8391 433.476 81.441 440.959Q83.5097 467.367 88.9596 493.289C100.189 547.272 141.846 591.883 186.677 621.375C172.434 618.933 158.838 615.786 144.98 611.734C159.378 620.209 175.45 625.671 191.823 628.812C223.684 634.924 264.824 631.469 292.364 612.415C313.667 597.676 322.099 564.347 326.483 540.021C321.059 550.903 317.889 563.731 310.936 573.734L310.002 572.951C310.07 564.13 307.741 554.162 302.643 546.892L301.905 545.852C308.218 503.819 327.835 467.193 357.583 436.933C393.859 400.033 454.378 366.053 507.299 365.554Z"/>
</svg>